<mxfile host="app.diagrams.net" modified="2020-10-21T02:59:00.851Z" agent="5.0 (Windows NT 10.0; Win64; x64) AppleWebKit/537.36 (KHTML, like Gecko) Chrome/86.0.4240.75 Safari/537.36" etag="B-pzdWw74yvcUTXTRrih" version="13.8.1" type="github">
  <diagram id="Ad6_y2lyAoWyW2zSPP8b" name="Page-1">
    <mxGraphModel dx="868" dy="450" grid="1" gridSize="10" guides="1" tooltips="1" connect="1" arrows="1" fold="1" page="1" pageScale="1" pageWidth="827" pageHeight="1169" math="0" shadow="0">
      <root>
        <mxCell id="0" />
        <mxCell id="1" parent="0" />
        <mxCell id="5djheGigBpE8O4fT_9fk-7" style="edgeStyle=orthogonalEdgeStyle;rounded=0;orthogonalLoop=1;jettySize=auto;html=1;entryX=0.5;entryY=0;entryDx=0;entryDy=0;" edge="1" parent="1" source="5djheGigBpE8O4fT_9fk-2" target="5djheGigBpE8O4fT_9fk-5">
          <mxGeometry relative="1" as="geometry" />
        </mxCell>
        <mxCell id="5djheGigBpE8O4fT_9fk-2" value="DWD&lt;br&gt;agods.ag_ods_jkc_tb_log_clk_di" style="rounded=1;whiteSpace=wrap;html=1;" vertex="1" parent="1">
          <mxGeometry x="170" y="60" width="230" height="60" as="geometry" />
        </mxCell>
        <mxCell id="5djheGigBpE8O4fT_9fk-4" value="ADS" style="rounded=1;whiteSpace=wrap;html=1;" vertex="1" parent="1">
          <mxGeometry x="225" y="270" width="120" height="60" as="geometry" />
        </mxCell>
        <mxCell id="5djheGigBpE8O4fT_9fk-6" style="edgeStyle=orthogonalEdgeStyle;rounded=0;orthogonalLoop=1;jettySize=auto;html=1;entryX=0.5;entryY=0;entryDx=0;entryDy=0;" edge="1" parent="1" source="5djheGigBpE8O4fT_9fk-5" target="5djheGigBpE8O4fT_9fk-4">
          <mxGeometry relative="1" as="geometry" />
        </mxCell>
        <mxCell id="5djheGigBpE8O4fT_9fk-5" value="DWS&lt;br&gt;agods.dws_ag_alicp_tb_log_clk_df" style="rounded=1;whiteSpace=wrap;html=1;" vertex="1" parent="1">
          <mxGeometry x="170" y="170" width="230" height="60" as="geometry" />
        </mxCell>
        <mxCell id="5djheGigBpE8O4fT_9fk-8" value="计算组件" style="rounded=1;whiteSpace=wrap;html=1;" vertex="1" parent="1">
          <mxGeometry x="470" y="170" width="230" height="60" as="geometry" />
        </mxCell>
        <mxCell id="5djheGigBpE8O4fT_9fk-11" value="" style="shape=flexArrow;endArrow=classic;html=1;exitX=1;exitY=0.5;exitDx=0;exitDy=0;entryX=0;entryY=0.5;entryDx=0;entryDy=0;" edge="1" parent="1" source="5djheGigBpE8O4fT_9fk-5" target="5djheGigBpE8O4fT_9fk-8">
          <mxGeometry width="50" height="50" relative="1" as="geometry">
            <mxPoint x="410" y="230" as="sourcePoint" />
            <mxPoint x="460" y="180" as="targetPoint" />
          </mxGeometry>
        </mxCell>
      </root>
    </mxGraphModel>
  </diagram>
</mxfile>
